<svg xmlns="http://www.w3.org/2000/svg" viewBox="0 0 800 800" width="800" height="800">
  <defs>
    <linearGradient id="abg" x1="0%" y1="0%" x2="0%" y2="100%">
      <stop offset="0%" stop-color="#faf8f3"/>
      <stop offset="100%" stop-color="#ede8dc"/>
    </linearGradient>
    <linearGradient id="amber" x1="0%" y1="0%" x2="100%" y2="100%">
      <stop offset="0%" stop-color="#b45309"/>
      <stop offset="40%" stop-color="#d97706"/>
      <stop offset="100%" stop-color="#78350f"/>
    </linearGradient>
    <linearGradient id="liquid" x1="0%" y1="100%" x2="0%" y2="0%">
      <stop offset="0%" stop-color="#fbbf24" stop-opacity="0.9"/>
      <stop offset="100%" stop-color="#fcd34d" stop-opacity="0.5"/>
    </linearGradient>
    <radialGradient id="bsh" cx="50%" cy="100%" r="45%">
      <stop offset="0%" stop-color="#000" stop-opacity="0.15"/>
      <stop offset="100%" stop-color="#000" stop-opacity="0"/>
    </radialGradient>
  </defs>
  <rect width="800" height="800" fill="url(#abg)"/>
  <ellipse cx="400" cy="668" rx="120" ry="20" fill="url(#bsh)"/>
  <g transform="translate(400, 380)">
    <rect x="-26" y="-198" width="52" height="44" rx="10" fill="#1c1917"/>
    <rect x="-14" y="-154" width="28" height="28" rx="5" fill="#292524"/>
    <line x1="0" y1="-126" x2="0" y2="-220" stroke="#44403c" stroke-width="5" stroke-linecap="round"/>
    <circle cx="0" cy="-232" r="10" fill="#1c1917"/>
    <rect x="-62" y="-115" width="124" height="210" rx="42" fill="url(#amber)" stroke="#92400e" stroke-width="2"/>
    <ellipse cx="0" cy="-40" rx="48" ry="70" fill="url(#liquid)"/>
    <path d="M-50 -95 Q0 -115 50 -95 L45 80 Q0 95 -45 80 Z" fill="#fff" opacity="0.15"/>
    <text x="0" y="150" text-anchor="middle" font-family="system-ui,sans-serif" font-size="17" font-weight="600" fill="#78350f">IRON &amp; OAK</text>
    <text x="0" y="178" text-anchor="middle" font-family="system-ui,sans-serif" font-size="13" fill="#92400e">beard oil 30 ml</text>
  </g>
</svg>
