<svg xmlns="http://www.w3.org/2000/svg" viewBox="0 0 800 800" width="800" height="800">
  <defs>
    <linearGradient id="gbg" x1="0%" y1="0%" x2="0%" y2="100%">
      <stop offset="0%" stop-color="#e8edf3"/>
      <stop offset="100%" stop-color="#cbd5e1"/>
    </linearGradient>
    <linearGradient id="flacon" x1="0%" y1="0%" x2="100%" y2="0%">
      <stop offset="0%" stop-color="#1e293b"/>
      <stop offset="50%" stop-color="#334155"/>
      <stop offset="100%" stop-color="#0f172a"/>
    </linearGradient>
    <linearGradient id="slab" x1="0%" y1="0%" x2="0%" y2="100%">
      <stop offset="0%" stop-color="#94a3b8"/>
      <stop offset="100%" stop-color="#64748b"/>
    </linearGradient>
    <linearGradient id="gshine" x1="0%" y1="0%" x2="100%" y2="0%">
      <stop offset="0%" stop-color="#fff" stop-opacity="0"/>
      <stop offset="45%" stop-color="#fff" stop-opacity="0.2"/>
      <stop offset="55%" stop-color="#fff" stop-opacity="0"/>
      <stop offset="100%" stop-color="#fff" stop-opacity="0"/>
    </linearGradient>
    <radialGradient id="gsh" cx="50%" cy="100%" r="55%">
      <stop offset="0%" stop-color="#000" stop-opacity="0.18"/>
      <stop offset="100%" stop-color="#000" stop-opacity="0"/>
    </radialGradient>
  </defs>
  <rect width="800" height="800" fill="url(#gbg)"/>
  <ellipse cx="400" cy="648" rx="200" ry="28" fill="url(#gsh)"/>
  <rect x="160" y="548" width="480" height="128" rx="16" fill="url(#slab)" opacity="0.85"/>
  <g transform="translate(400, 330)">
    <rect x="-44" y="-328" width="88" height="40" rx="8" fill="#0f172a"/>
    <rect x="-36" y="-288" width="72" height="24" rx="4" fill="#1e293b"/>
    <rect x="-76" y="-260" width="152" height="288" rx="22" fill="url(#flacon)"/>
    <rect x="-64" y="-240" width="128" height="200" rx="14" fill="url(#gshine)"/>
    <rect x="-52" y="-220" width="104" height="48" rx="4" fill="#fff" opacity="0.06"/>
    <text x="0" y="210" text-anchor="middle" font-family="system-ui,sans-serif" font-size="18" font-weight="600" fill="#1e293b">GREY CODE</text>
    <text x="0" y="236" text-anchor="middle" font-family="system-ui,sans-serif" font-size="13" fill="#475569">eau de parfum 100 ml</text>
  </g>
</svg>
