<svg xmlns="http://www.w3.org/2000/svg" viewBox="0 0 900 1050" width="900" height="1050">
  <defs>
    <linearGradient id="bg" x1="0%" y1="0%" x2="0%" y2="100%">
      <stop offset="0%" stop-color="#f0f2f5"/>
      <stop offset="100%" stop-color="#d8dde4"/>
    </linearGradient>
    <radialGradient id="shadow" cx="50%" cy="100%" r="55%">
      <stop offset="0%" stop-color="#000" stop-opacity="0.22"/>
      <stop offset="100%" stop-color="#000" stop-opacity="0"/>
    </radialGradient>
    <linearGradient id="glass" x1="0%" y1="0%" x2="100%" y2="0%">
      <stop offset="0%" stop-color="#1e293b"/>
      <stop offset="35%" stop-color="#334155"/>
      <stop offset="50%" stop-color="#475569"/>
      <stop offset="65%" stop-color="#334155"/>
      <stop offset="100%" stop-color="#0f172a"/>
    </linearGradient>
    <linearGradient id="shine" x1="0%" y1="0%" x2="100%" y2="0%">
      <stop offset="0%" stop-color="#fff" stop-opacity="0"/>
      <stop offset="42%" stop-color="#fff" stop-opacity="0.35"/>
      <stop offset="48%" stop-color="#fff" stop-opacity="0.08"/>
      <stop offset="100%" stop-color="#fff" stop-opacity="0"/>
    </linearGradient>
    <linearGradient id="cap" x1="0%" y1="0%" x2="0%" y2="100%">
      <stop offset="0%" stop-color="#2d2d2d"/>
      <stop offset="100%" stop-color="#0a0a0a"/>
    </linearGradient>
    <filter id="soft" x="-30%" y="-30%" width="160%" height="160%">
      <feGaussianBlur stdDeviation="4" result="b"/>
      <feMerge><feMergeNode in="b"/><feMergeNode in="SourceGraphic"/></feMerge>
    </filter>
  </defs>
  <rect width="900" height="1050" fill="url(#bg)"/>
  <ellipse cx="450" cy="958" rx="240" ry="32" fill="url(#shadow)"/>
  <g filter="url(#soft)" transform="translate(450, 480)">
    <rect x="-52" y="-395" width="104" height="52" rx="10" fill="url(#cap)"/>
    <rect x="-44" y="-343" width="88" height="28" rx="5" fill="#1a1a1a"/>
    <path d="M-78 -315 C-78 -330 -70 -340 -58 -340 L58 -340 C70 -340 78 -330 78 -315 L72 340 C72 355 62 365 50 365 L-50 365 C-62 365 -72 355 -72 340 Z" fill="url(#glass)"/>
    <path d="M-65 -300 L65 -300 L58 320 L-58 320 Z" fill="url(#shine)" opacity="0.9"/>
    <rect x="-40" y="-280" width="80" height="36" rx="3" fill="#fff" opacity="0.06"/>
  </g>
  <text x="450" y="1000" text-anchor="middle" font-family="system-ui,Segoe UI,sans-serif" font-size="20" fill="#64748b" letter-spacing="0.08em">OMBRE DEVISION · EDP</text>
</svg>
